<svg width="30" height="30" viewBox="0 0 30 30" fill="none" xmlns="http://www.w3.org/2000/svg">
<path d="M3.75 30C2.75544 30 1.80161 29.6049 1.09835 28.9017C0.395088 28.1984 0 27.2446 0 26.25L0 3.75C0 2.75544 0.395088 1.80161 1.09835 1.09835C1.80161 0.395088 2.75544 0 3.75 0H26.25C27.2446 0 28.1984 0.395088 28.9016 1.09835C29.6049 1.80161 30 2.75544 30 3.75V26.25C30 27.2446 29.6049 28.1984 28.9016 28.9017C28.1984 29.6049 27.2446 30 26.25 30H3.75ZM15.9375 21.5625V10.7006L19.9613 14.7262C20.0484 14.8134 20.1519 14.8826 20.2658 14.9297C20.3797 14.9769 20.5017 15.0012 20.625 15.0012C20.7483 15.0012 20.8703 14.9769 20.9842 14.9297C21.0981 14.8826 21.2016 14.8134 21.2887 14.7262C21.3759 14.6391 21.4451 14.5356 21.4922 14.4217C21.5394 14.3078 21.5637 14.1858 21.5637 14.0625C21.5637 13.9392 21.5394 13.8172 21.4922 13.7033C21.4451 13.5894 21.3759 13.4859 21.2887 13.3988L15.6637 7.77375C15.5767 7.68644 15.4732 7.61718 15.3593 7.56991C15.2454 7.52265 15.1233 7.49833 15 7.49833C14.8767 7.49833 14.7546 7.52265 14.6407 7.56991C14.5268 7.61718 14.4233 7.68644 14.3363 7.77375L8.71125 13.3988C8.62408 13.4859 8.55494 13.5894 8.50777 13.7033C8.4606 13.8172 8.43632 13.9392 8.43632 14.0625C8.43632 14.1858 8.4606 14.3078 8.50777 14.4217C8.55494 14.5356 8.62408 14.6391 8.71125 14.7262C8.88729 14.9023 9.12605 15.0012 9.375 15.0012C9.49827 15.0012 9.62033 14.9769 9.73422 14.9297C9.84811 14.8826 9.95158 14.8134 10.0387 14.7262L14.0625 10.7006V21.5625C14.0625 21.8111 14.1613 22.0496 14.3371 22.2254C14.5129 22.4012 14.7514 22.5 15 22.5C15.2486 22.5 15.4871 22.4012 15.6629 22.2254C15.8387 22.0496 15.9375 21.8111 15.9375 21.5625Z" fill="#0D6EFD"/>
</svg>
