<svg width="47" height="45" viewBox="0 0 47 45" fill="none" xmlns="http://www.w3.org/2000/svg">
<path d="M15.2847 23.8418C9.04782 25.6238 3.2812 34.4841 1.1775 38.6915C-0.678707 41.971 12.686 45.7451 10.4585 42.0327C8.23109 38.3203 17.5121 30.5242 20.8533 29.0392C23.5262 27.8513 25.6794 25.0793 26.4219 23.8418L24.937 21.6144C24.8132 22.3569 23.8232 24.0646 20.8533 24.9556C17.8834 25.8466 15.9034 24.5843 15.2847 23.8418Z" fill="#C4C4C4" stroke="black"/>
<path d="M21 35.5L16 33L20 30L21 30.5C20.2 31.7 20.6667 34.3333 21 35.5Z" fill="#C4C4C4" stroke="black"/>
<path d="M35.1945 12.3532C38.1843 15.599 39.8905 19.4329 40.2502 22.992C40.6098 26.5508 39.624 29.8015 37.2767 31.9638C34.9293 34.126 31.6087 34.842 28.0913 34.1918C24.5737 33.5416 20.8925 31.5268 17.9028 28.281C14.913 25.0352 13.2068 21.2013 12.8471 17.6422C12.4874 14.0834 13.4732 10.8327 15.8206 8.67044C18.168 6.5082 21.4885 5.79224 25.0059 6.44241C28.5235 7.09262 32.2047 9.10739 35.1945 12.3532Z" fill="#9F9F9F" stroke="black"/>
<path d="M34.8507 12.4355C37.8599 15.7024 39.5465 18.9999 40.0876 21.8189C40.6295 24.6413 40.0196 26.9262 38.5279 28.3002C37.0472 29.6641 34.8721 29.9683 32.2439 29.0766C29.6114 28.1833 26.5925 26.1042 23.5718 22.8248C20.5331 19.526 18.3785 16.4312 17.3863 13.8158C16.3947 11.2018 16.6028 9.20305 18.0446 7.87497C19.5377 6.49967 22.1948 5.9752 25.3074 6.65617C28.3999 7.33273 31.8594 9.1881 34.8507 12.4355Z" fill="white" stroke="black"/>
<path d="M35.5255 29.4105C34.0405 14.1896 18.0771 13.0758 17.3346 12.7046L16.5922 11.9621L17.7059 7.87846L21.0471 6.02225L28.4719 7.50721C32.3092 9.50248 33.8992 10.9022 35.8967 13.8183C38.5121 16.1647 39.4547 17.9834 40.3516 21.9856L39.9804 25.6981L38.4954 28.2967L37.0105 29.4105H35.5255Z" fill="#141313"/>
<path d="M34.852 12.3733C37.8612 15.6402 39.5478 18.9377 40.0889 21.7567C40.6308 24.5791 40.0209 26.864 38.5292 28.238C37.0485 29.6019 34.8733 29.9061 32.2451 29.0144C29.6127 28.1211 26.5938 26.042 23.5731 22.7626C20.5344 19.4638 18.3797 16.369 17.3876 13.7536C16.396 11.1396 16.6041 9.14084 18.0459 7.81276C19.539 6.43746 22.1961 5.91299 25.3087 6.59396C28.4011 7.27052 31.8607 9.12589 34.852 12.3733Z" stroke="black"/>
</svg>
