<svg width="49" height="28" viewBox="0 0 49 28" fill="none" xmlns="http://www.w3.org/2000/svg">
<path d="M41.5 19.2316C41.5 19.5176 41.7573 19.7772 42.0989 19.7653C43.1795 19.7277 44.1172 19.8388 44.9912 20.1444C45.8661 20.4503 46.6503 20.9418 47.4361 21.6302C47.6305 21.8005 47.9021 21.8331 48.1359 21.7424C48.364 21.6539 48.5 21.4742 48.5 21.2485V15.898C48.5 15.8178 48.481 15.7423 48.4474 15.6796C47.7505 14.3773 47.0107 13.6159 46.0497 13.1586C45.0676 12.6912 43.7977 12.513 41.979 12.5007C41.7198 12.4989 41.5 12.7133 41.5 12.9887V19.2316Z" fill="#9F9F9F" stroke="black"/>
<path d="M7.5 19.2316C7.5 19.5176 7.24271 19.7772 6.90107 19.7653C5.82048 19.7277 4.88285 19.8388 4.00879 20.1444C3.13393 20.4503 2.34973 20.9418 1.56392 21.6302C1.36947 21.8005 1.09785 21.8331 0.864115 21.7424C0.636043 21.6539 0.5 21.4742 0.5 21.2485V15.898C0.5 15.8178 0.519043 15.7423 0.552617 15.6796C1.2495 14.3773 1.98932 13.6159 2.95026 13.1586C3.9324 12.6912 5.20225 12.513 7.02099 12.5007C7.28015 12.4989 7.5 12.7133 7.5 12.9887V19.2316Z" fill="#9F9F9F" stroke="black"/>
<rect x="3.5" y="5.5" width="41" height="22" rx="11" fill="white" stroke="black"/>
<path d="M5.5 12.2228C5.5 6.29653 11.0029 1.95179 16.9794 2.61145C21.7669 3.13987 26.1678 3.16011 30.8894 2.662C36.9247 2.02529 42.5 6.38822 42.5 12.3616C42.5 16.1767 40.1977 19.6466 36.6104 20.809C32.0543 22.2854 28.1999 23.0104 24.2911 22.9999C20.3807 22.9894 16.3885 22.2427 11.5564 20.7429C7.89005 19.6049 5.5 16.0995 5.5 12.2228Z" fill="#9F9F9F" stroke="black"/>
<circle cx="36" cy="5" r="1.5" fill="white" stroke="black"/>
<path d="M13.5 27C14.1667 27 15.5 25.9 15.5 21.5C15.5 17.1 17.5 15.3333 18.5 15H24.5" stroke="black"/>
<path d="M35 27C34.3333 27 33 25.9 33 21.5C33 17.1 31 15.3333 30 15H24" stroke="black"/>
<circle cx="38" cy="16" r="1.5" fill="white" stroke="black"/>
<circle cx="12" cy="5.38972" r="1.5" fill="white" stroke="black"/>
<circle cx="10" cy="16" r="1.5" fill="white" stroke="black"/>
<rect x="16.5" y="2.5" width="15" height="6" rx="3" fill="white" stroke="black"/>
</svg>
