<svg width="49" height="27" viewBox="0 0 49 27" fill="none" xmlns="http://www.w3.org/2000/svg">
<path d="M41.5 18.2316C41.5 18.5176 41.7573 18.7772 42.0989 18.7653C43.1795 18.7277 44.1172 18.8388 44.9912 19.1444C45.8661 19.4503 46.6503 19.9418 47.4361 20.6302C47.6305 20.8005 47.9021 20.8331 48.1359 20.7424C48.364 20.6539 48.5 20.4742 48.5 20.2485V14.898C48.5 14.8178 48.481 14.7423 48.4474 14.6796C47.7505 13.3773 47.0107 12.6159 46.0497 12.1586C45.0676 11.6912 43.7977 11.513 41.979 11.5007C41.7198 11.4989 41.5 11.7133 41.5 11.9887V18.2316Z" fill="#9F9F9F" stroke="black"/>
<path d="M7.5 18.2316C7.5 18.5176 7.24271 18.7772 6.90107 18.7653C5.82048 18.7277 4.88285 18.8388 4.00879 19.1444C3.13393 19.4503 2.34973 19.9418 1.56392 20.6302C1.36947 20.8005 1.09785 20.8331 0.864115 20.7424C0.636043 20.6539 0.5 20.4742 0.5 20.2485V14.898C0.5 14.8178 0.519043 14.7423 0.552617 14.6796C1.2495 13.3773 1.98932 12.6159 2.95026 12.1586C3.9324 11.6912 5.20225 11.513 7.02099 11.5007C7.28015 11.4989 7.5 11.7133 7.5 11.9887V18.2316Z" fill="#9F9F9F" stroke="black"/>
<rect x="3.5" y="4.5" width="41" height="22" rx="11" fill="white" stroke="black"/>
<path d="M5.5 11.3815C5.5 8.05244 7.42078 5.00648 10.4816 3.7816C15.5783 1.74194 19.9229 0.592749 24.2439 0.505377C28.5595 0.418116 32.8885 1.38943 37.9521 3.64634C40.7976 4.9146 42.5 7.85671 42.5 11.0219C42.5 17.1163 36.2937 21.2 30.1096 20.1593C25.8197 19.4374 21.8211 19.4829 17.5444 20.2605C11.5218 21.3555 5.5 17.3422 5.5 11.3815Z" fill="#9F9F9F" stroke="black"/>
<path d="M13 22.5V26" stroke="black" stroke-linecap="round"/>
<path d="M34 23V26.5" stroke="black" stroke-linecap="round"/>
<circle cx="24" cy="4" r="1.5" fill="white" stroke="black"/>
<circle cx="24" cy="16" r="1.5" fill="white" stroke="black"/>
</svg>
