<svg width="145" height="30" viewBox="0 0 145 30" fill="none" xmlns="http://www.w3.org/2000/svg">
<path d="M55.3054 10.4545L58.2884 20.7102H58.402L61.3849 10.4545H65.8452L61.044 25H55.6463L50.8452 10.4545H55.3054ZM67.2461 25V10.4545H73.5245C74.604 10.4545 75.5487 10.651 76.3583 11.044C77.168 11.437 77.7977 12.0028 78.2475 12.7415C78.6973 13.4801 78.9222 14.3655 78.9222 15.3977C78.9222 16.4394 78.6902 17.3177 78.2262 18.0327C77.7669 18.7476 77.1206 19.2874 76.2873 19.652C75.4587 20.0166 74.4904 20.1989 73.3825 20.1989H69.6325V17.1307H72.587C73.051 17.1307 73.4464 17.0739 73.7731 16.9602C74.1045 16.8419 74.3578 16.6548 74.533 16.3991C74.713 16.1435 74.8029 15.8097 74.8029 15.3977C74.8029 14.9811 74.713 14.6425 74.533 14.3821C74.3578 14.117 74.1045 13.9228 73.7731 13.7997C73.4464 13.6719 73.051 13.608 72.587 13.608H71.195V25H67.2461ZM75.7688 18.3239L79.4052 25H75.1154L71.5643 18.3239H75.7688ZM90.2148 19.6023H93.283L94.391 20.9943L96.266 23.125L98.7092 26.0795H95.2148L93.4819 24.0625L92.3171 22.3864L90.2148 19.6023ZM98.6808 17.7273C98.6808 19.3466 98.3659 20.7126 97.7362 21.8253C97.1064 22.9332 96.2565 23.7737 95.1864 24.3466C94.1164 24.9148 92.9232 25.1989 91.6069 25.1989C90.2811 25.1989 89.0832 24.9124 88.0131 24.3395C86.9478 23.7618 86.1003 22.919 85.4705 21.8111C84.8455 20.6984 84.533 19.3371 84.533 17.7273C84.533 16.108 84.8455 14.7443 85.4705 13.6364C86.1003 12.5237 86.9478 11.6832 88.0131 11.1151C89.0832 10.5421 90.2811 10.2557 91.6069 10.2557C92.9232 10.2557 94.1164 10.5421 95.1864 11.1151C96.2565 11.6832 97.1064 12.5237 97.7362 13.6364C98.3659 14.7443 98.6808 16.108 98.6808 17.7273ZM94.6183 17.7273C94.6183 16.8561 94.5022 16.1222 94.2702 15.5256C94.043 14.9242 93.7044 14.4697 93.2546 14.1619C92.8095 13.8494 92.2603 13.6932 91.6069 13.6932C90.9535 13.6932 90.4019 13.8494 89.9521 14.1619C89.507 14.4697 89.1684 14.9242 88.9364 15.5256C88.7092 16.1222 88.5955 16.8561 88.5955 17.7273C88.5955 18.5985 88.7092 19.3348 88.9364 19.9361C89.1684 20.5327 89.507 20.9872 89.9521 21.2997C90.4019 21.6075 90.9535 21.7614 91.6069 21.7614C92.2603 21.7614 92.8095 21.6075 93.2546 21.2997C93.7044 20.9872 94.043 20.5327 94.2702 19.9361C94.5022 19.3348 94.6183 18.5985 94.6183 17.7273ZM107.658 20.2273V14.0909H111.578V25H107.857V22.9261H107.743C107.507 23.6222 107.092 24.1667 106.5 24.5597C105.908 24.9479 105.205 25.142 104.391 25.142C103.629 25.142 102.961 24.9669 102.388 24.6165C101.82 24.2661 101.377 23.7831 101.06 23.1676C100.748 22.5521 100.589 21.8466 100.584 21.0511V14.0909H104.505V20.2273C104.509 20.767 104.647 21.1908 104.917 21.4986C105.191 21.8063 105.575 21.9602 106.067 21.9602C106.394 21.9602 106.676 21.8916 106.912 21.7543C107.154 21.6122 107.338 21.4134 107.466 21.1577C107.599 20.8973 107.663 20.5871 107.658 20.2273ZM118.8 25.1989C117.635 25.1989 116.631 24.9763 115.788 24.5312C114.95 24.0814 114.304 23.4375 113.849 22.5994C113.4 21.7566 113.175 20.7481 113.175 19.5739C113.175 18.447 113.402 17.4621 113.857 16.6193C114.311 15.7765 114.953 15.1207 115.781 14.652C116.61 14.1832 117.588 13.9489 118.714 13.9489C119.538 13.9489 120.284 14.0767 120.952 14.3324C121.619 14.5881 122.19 14.9598 122.663 15.4474C123.137 15.9304 123.501 16.5175 123.757 17.2088C124.013 17.9001 124.141 18.679 124.141 19.5455V20.4545H114.396V18.2955H120.533C120.528 17.983 120.447 17.7083 120.291 17.4716C120.14 17.2301 119.934 17.0431 119.673 16.9105C119.418 16.7732 119.126 16.7045 118.8 16.7045C118.482 16.7045 118.191 16.7732 117.926 16.9105C117.661 17.0431 117.448 17.2277 117.287 17.4645C117.131 17.7012 117.048 17.9782 117.038 18.2955V20.625C117.038 20.9754 117.112 21.2879 117.259 21.5625C117.405 21.8371 117.616 22.0526 117.891 22.2088C118.165 22.3651 118.497 22.4432 118.885 22.4432C119.155 22.4432 119.401 22.4053 119.624 22.3295C119.851 22.2538 120.045 22.1449 120.206 22.0028C120.367 21.8561 120.485 21.6809 120.561 21.4773H124.141C124.018 22.2348 123.726 22.893 123.267 23.4517C122.808 24.0057 122.199 24.4366 121.442 24.7443C120.689 25.0473 119.808 25.1989 118.8 25.1989ZM135.712 17.642H132.104C132.085 17.4195 132.007 17.2277 131.87 17.0668C131.732 16.9058 131.555 16.7827 131.337 16.6974C131.124 16.6075 130.887 16.5625 130.627 16.5625C130.291 16.5625 130.002 16.6241 129.76 16.7472C129.519 16.8703 129.4 17.0455 129.405 17.2727C129.4 17.4337 129.469 17.5829 129.611 17.7202C129.758 17.8575 130.04 17.964 130.456 18.0398L132.672 18.4375C133.79 18.6411 134.621 18.9844 135.165 19.4673C135.714 19.9455 135.991 20.5871 135.996 21.392C135.991 22.1686 135.759 22.8433 135.3 23.4162C134.846 23.9844 134.223 24.4247 133.432 24.7372C132.646 25.045 131.749 25.1989 130.74 25.1989C129.074 25.1989 127.769 24.858 126.827 24.1761C125.89 23.4943 125.366 22.5947 125.257 21.4773H129.15C129.202 21.8229 129.372 22.0904 129.661 22.2798C129.954 22.4645 130.324 22.5568 130.769 22.5568C131.129 22.5568 131.425 22.4953 131.657 22.3722C131.893 22.2491 132.014 22.0739 132.019 21.8466C132.014 21.6383 131.91 21.4725 131.706 21.3494C131.507 21.2263 131.195 21.1269 130.769 21.0511L128.837 20.7102C127.724 20.5161 126.891 20.1468 126.337 19.6023C125.783 19.0578 125.508 18.357 125.513 17.5C125.508 16.7424 125.707 16.1009 126.11 15.5753C126.517 15.045 127.097 14.6425 127.85 14.3679C128.607 14.0885 129.505 13.9489 130.542 13.9489C132.118 13.9489 133.361 14.2756 134.27 14.929C135.184 15.5824 135.665 16.4867 135.712 17.642ZM144.004 14.0909V16.9318H136.816V14.0909H144.004ZM138.208 11.4773H142.129V21.4915C142.129 21.643 142.155 21.7708 142.207 21.875C142.259 21.9744 142.34 22.0502 142.449 22.1023C142.557 22.1496 142.697 22.1733 142.868 22.1733C142.986 22.1733 143.123 22.1591 143.279 22.1307C143.44 22.1023 143.559 22.0786 143.635 22.0597L144.203 24.8153C144.028 24.8674 143.777 24.9313 143.45 25.0071C143.128 25.0829 142.744 25.1326 142.299 25.1562C141.4 25.2036 140.645 25.1113 140.034 24.8793C139.423 24.6425 138.964 24.2708 138.656 23.7642C138.348 23.2576 138.199 22.6231 138.208 21.8608V11.4773Z" fill="black"/>
<path d="M8.84068 6.40548C16.5045 7.25527 22.6984 7.28813 31.0412 6.38974C34.4357 6.02421 37.425 8.66776 37.3559 12.0539L37.1387 22.6996C37.0713 26.0005 34.1229 28.4952 30.824 28.1033C22.7029 27.1385 16.6046 26.9654 8.78579 27.6997C5.44181 28.0137 2.5 25.4493 2.5 22.1226V11.9544C2.5 8.60254 5.48119 6.03296 8.84068 6.40548Z" fill="black" stroke="black"/>
<rect y="13" width="3" height="6" rx="1" fill="black"/>
<rect x="37" y="13" width="3" height="6" rx="1" fill="black"/>
<rect x="15" width="10" height="8" rx="1" fill="black"/>
<path fill-rule="evenodd" clip-rule="evenodd" d="M6.28855 13.8674C5.75261 15.8152 5.82693 18.7231 7.82574 21.097C9.78933 23.4292 13.5141 25.133 20.0045 25.0096C26.495 25.133 30.2197 23.4292 32.1833 21.097C34.1821 18.7231 34.2564 15.8152 33.7205 13.8674L32.7563 14.1327C33.2292 15.8514 33.1522 18.3936 31.4183 20.453C29.7554 22.4281 26.4759 24.0679 20.3754 24.0147L20.3749 24.0002C20.2503 24.004 20.1269 24.007 20.0045 24.0094C19.8821 24.007 19.7587 24.004 19.6341 24.0002L19.6337 24.0147C13.5332 24.0679 10.2537 22.4281 8.59071 20.453C6.85682 18.3936 6.77981 15.8514 7.25272 14.1327L6.28855 13.8674Z" fill="white"/>
<circle cx="12" cy="16" r="5.5" fill="url(#paint0_linear_54_4)" stroke="white"/>
<circle cx="28" cy="16" r="5.5" fill="url(#paint1_linear_54_4)" stroke="white"/>
<defs>
<linearGradient id="paint0_linear_54_4" x1="8" y1="12" x2="12" y2="22" gradientUnits="userSpaceOnUse">
<stop stop-color="#B462F4"/>
<stop offset="1" stop-color="#FFDB5C"/>
</linearGradient>
<linearGradient id="paint1_linear_54_4" x1="22.5" y1="15.5" x2="28" y2="22" gradientUnits="userSpaceOnUse">
<stop stop-color="#0057FF"/>
<stop offset="1" stop-color="#22FFCA"/>
</linearGradient>
</defs>
</svg>
